<svg width="200" height="42" viewBox="0 0 200 42" fill="none" xmlns="http://www.w3.org/2000/svg">
  <g clip-path="url(#clip0_136_2325)">
    <path
      d="M45.9034 1.4107L41.4913 18.0487C44.5869 17.2933 47.4027 17.1531 49.0533 17.1531C49.6559 17.1531 50.0186 17.1731 50.0585 17.176L51.1037 17.2361L55.9328 1.4107H45.9034ZM32.3586 1.4107H23.857L17.1145 26.9613L10.3121 1.4107H0L12.0142 40.5893H21.7037L27.995 16.7983L30.1596 25.0529C31.836 22.7124 34.2005 20.8383 37.1934 19.5022L32.3586 1.4107Z"
      fill="#002640" />
    <path
      d="M75.0864 1.4107H63.5834L49.1875 40.5893H59.671L59.6824 40.555H59.5996L69.2492 12.1975L76.6742 34.4005H76.7313L78.8274 40.5893H89.4822L75.0864 1.4107Z"
      fill="#002640" />
    <path
      d="M185.604 1.4107H174.101L159.705 40.5893H170.189L170.2 40.555H170.117L179.767 12.1975L187.192 34.4005H187.249L189.345 40.5893H200L185.604 1.4107Z"
      fill="#002640" />
    <path
      d="M117.08 26.392C121.555 24.2918 124.445 20.0916 124.445 14.867C124.445 7.14457 118.382 1.4107 110.449 1.4107H93.2204V40.5893H102.967V27.814H106.822L113.905 40.5893H125.579L117.08 26.392ZM110.221 19.2961H102.967V10.6095H110.221C112.66 10.6095 114.473 12.4836 114.473 14.9242C114.473 17.3648 112.66 19.2961 110.221 19.2961Z"
      fill="#002640" />
    <path
      d="M145.072 16.1746C141.617 15.3791 138.556 14.3005 138.556 12.3119C138.556 10.6095 140.709 9.41637 143.827 9.41637C147.397 9.41637 151.195 10.8928 153.517 12.9929L157.995 5.5566C155.048 2.82986 150.004 0.729729 143.942 0.729729C134.703 0.729729 128.526 5.44215 128.526 12.6524C128.526 19.8627 134.192 23.442 142.354 25.4277C146.546 26.4492 149.607 27.2446 149.607 29.3447C149.607 31.3333 146.943 32.5808 143.827 32.5808C139.861 32.5808 135.214 30.5951 131.927 27.6995L126.938 35.1387C131.133 38.8268 137.762 41.2703 143.884 41.2703C152.723 41.2703 159.582 36.329 159.582 28.947C159.582 19.6366 148.474 16.9099 145.072 16.1746Z"
      fill="#002640" />
    <path
      d="M49.8187 18.8298C48.6878 20.2747 47.5255 21.7768 47.0686 23.5565C46.8201 24.5264 46.7973 25.5393 46.7544 26.5407C46.5945 30.535 45.9948 34.9012 43.0562 37.6051C42.3737 38.2317 41.4913 38.741 40.5146 39.1472C38.5584 39.9627 36.2338 40.3718 34.3862 40.555C34.3262 40.5035 34.2634 40.4462 34.2034 40.3862C34.2605 39.6909 34.3547 38.9727 34.4861 38.2345C35.1915 34.2918 37.0563 29.8311 41.2428 25.6938C41.0972 25.7882 36.4195 28.8583 33.7922 35.585C33.3981 36.6008 33.0439 37.7023 32.7641 38.8897C31.1991 37.0071 29.7484 34.246 30.4109 30.7009C30.6594 29.3762 31.0592 28.2031 31.5847 27.1559C33.0639 24.1774 35.5199 22.2575 38.1529 21.0186C39.1124 20.5694 40.092 20.2089 41.0572 19.9199C44.3756 18.9385 47.5283 18.8069 48.9791 18.8069C49.5131 18.8069 49.8158 18.8269 49.8158 18.8269L49.8187 18.8298Z"
      fill="url(#paint0_radial_136_2325)" />
  </g>
  <defs>
    <radialGradient id="paint0_radial_136_2325" cx="0" cy="0" r="1" gradientUnits="userSpaceOnUse"
      gradientTransform="translate(20.0474 56.6178) scale(86.1239 86.2885)">
      <stop stop-color="#CDA998" />
      <stop offset="1" stop-color="#614B40" />
    </radialGradient>
    <clipPath id="clip0_136_2325">
      <rect width="200" height="40.5405" fill="white" transform="translate(0 0.729729)" />
    </clipPath>
  </defs>
</svg>