<svg width="200" height="42" viewBox="0 0 200 42" fill="none" xmlns="http://www.w3.org/2000/svg"
  xmlns:xlink="http://www.w3.org/2000/xlink" href='https://www.w3.org/1999/xlink'>
  <g clip-path="url(#clip0_66_5555)">
    <path
      d="M45.9034 1.37671L41.4913 17.9829C44.5869 17.229 47.4027 17.0891 49.0533 17.0891C49.6559 17.0891 50.0186 17.1091 50.0585 17.1119L51.1037 17.1719L55.9328 1.37671H45.9034ZM32.3586 1.37671H23.857L17.1145 26.8786L10.3121 1.37671H0L12.0142 40.4806H21.7037L27.995 16.735L30.1596 24.9738C31.836 22.6378 34.2005 20.7673 37.1934 19.4337L32.3586 1.37671Z"
      fill="white" />
    <path
      d="M75.0864 1.37671H63.5834L49.1875 40.4806H59.671L59.6824 40.4463H59.5996L69.2492 12.1429L76.6742 34.3036H76.7313L78.8274 40.4806H89.4822L75.0864 1.37671Z"
      fill="white" />
    <path
      d="M185.604 1.37671H174.101L159.705 40.4806H170.189L170.2 40.4463H170.117L179.767 12.1429L187.192 34.3036H187.249L189.345 40.4806H200L185.604 1.37671Z"
      fill="white" />
    <path
      d="M117.08 26.3103C121.555 24.2142 124.445 20.0219 124.445 14.8073C124.445 7.09964 118.382 1.37671 110.449 1.37671H93.2204V40.4806H102.967V27.7296H106.822L113.905 40.4806H125.579L117.08 26.3103ZM110.221 19.228H102.967V10.558H110.221C112.66 10.558 114.473 12.4285 114.473 14.8644C114.473 17.3004 112.66 19.228 110.221 19.228Z"
      fill="white" />
    <path
      d="M145.072 16.1124C141.617 15.3185 138.556 14.2419 138.556 12.2571C138.556 10.5579 140.709 9.3671 143.827 9.3671C147.397 9.3671 151.195 10.8407 153.517 12.9368L157.995 5.51468C155.048 2.79315 150.004 0.697021 143.942 0.697021C134.703 0.697021 128.526 5.40045 128.526 12.597C128.526 19.7935 134.192 23.366 142.354 25.3479C146.546 26.3674 149.607 27.1613 149.607 29.2574C149.607 31.2422 146.943 32.4873 143.827 32.4873C139.861 32.4873 135.214 30.5054 131.927 27.6154L126.938 35.0403C131.133 38.7214 137.762 41.1602 143.884 41.1602C152.723 41.1602 159.582 36.2283 159.582 28.8605C159.582 19.5679 148.474 16.8463 145.072 16.1124Z"
      fill="white" />
    <path
      d="M50.3898 19.6193C49.2589 21.0614 48.0966 22.5607 47.6397 24.337C47.3913 25.3051 47.3684 26.316 47.3256 27.3155C47.1657 31.3022 46.566 35.6601 43.6274 38.3588C42.9449 38.9842 42.0624 39.4925 41.0858 39.898C39.1296 40.7119 36.805 41.1203 34.9573 41.303C34.8973 41.2516 34.8345 41.1945 34.7745 41.1345C34.8317 40.4406 34.9259 39.7238 35.0573 38.987C35.7626 35.0518 37.6274 30.5997 41.814 26.4702C41.6683 26.5645 36.9906 29.6287 34.3633 36.3426C33.9692 37.3564 33.6151 38.4558 33.3352 39.641C31.7703 37.7619 30.3196 35.0061 30.9821 31.4678C31.2305 30.1456 31.6303 28.9747 32.1558 27.9295C33.6351 24.9567 36.091 23.0405 38.724 21.8039C39.6836 21.3556 40.6631 20.9958 41.6284 20.7073C44.9467 19.7278 48.0995 19.5964 49.5502 19.5964C50.0842 19.5964 50.387 19.6164 50.387 19.6164L50.3898 19.6193Z"
      fill="url(#paint0_radial_66_5555)" />
  </g>
  <defs>
    <radialGradient id="paint0_radial_66_5555" cx="0" cy="0" r="1" gradientUnits="userSpaceOnUse"
      gradientTransform="translate(15.5467 64.4061) scale(144.558 144.558)">
      <stop stop-color="#CDA998" />
      <stop offset="1" stop-color="#614B40" />
    </radialGradient>
    <clipPath id="clip0_66_5555">
      <rect width="200" height="40.606" fill="white" transform="translate(0 0.697021)" />
    </clipPath>
  </defs>
</svg>